<?xml version="1.0" encoding="UTF-8" standalone="no"?>
<!-- Created with Inkscape (http://www.inkscape.org/) -->

<svg
   xmlns:dc="http://purl.org/dc/elements/1.1/"
   xmlns:cc="http://creativecommons.org/ns#"
   xmlns:rdf="http://www.w3.org/1999/02/22-rdf-syntax-ns#"
   xmlns:svg="http://www.w3.org/2000/svg"
   xmlns="http://www.w3.org/2000/svg"
   xmlns:sodipodi="http://sodipodi.sourceforge.net/DTD/sodipodi-0.dtd"
   xmlns:inkscape="http://www.inkscape.org/namespaces/inkscape"
   width="70.375847mm"
   height="81.263077mm"
   viewBox="0 0 70.375847 81.263077"
   version="1.1"
   id="svg4687"
   inkscape:version="0.92.3 (2405546, 2018-03-11)"
   sodipodi:docname="vector-r-packages.svg">
  <defs
     id="defs4681" />
  <sodipodi:namedview
     id="base"
     pagecolor="#ffffff"
     bordercolor="#666666"
     borderopacity="1.0"
     inkscape:pageopacity="0.0"
     inkscape:pageshadow="2"
     inkscape:zoom="0.25"
     inkscape:cx="-769.37654"
     inkscape:cy="116.7672"
     inkscape:document-units="mm"
     inkscape:current-layer="layer1"
     showgrid="false"
     showborder="false"
     inkscape:window-width="1920"
     inkscape:window-height="1017"
     inkscape:window-x="-8"
     inkscape:window-y="-8"
     inkscape:window-maximized="1"
     fit-margin-top="0"
     fit-margin-left="0"
     fit-margin-right="0"
     fit-margin-bottom="0" />
  <metadata
     id="metadata4684">
    <rdf:RDF>
      <cc:Work
         rdf:about="">
        <dc:format>image/svg+xml</dc:format>
        <dc:type
           rdf:resource="http://purl.org/dc/dcmitype/StillImage" />
        <dc:title></dc:title>
      </cc:Work>
    </rdf:RDF>
  </metadata>
  <g
     inkscape:label="Layer 1"
     inkscape:groupmode="layer"
     id="layer1"
     transform="translate(-548.49368,-4.1126257)">
    <g
       id="g4299"
       transform="matrix(6.5948769,0,0,6.5948769,-113.3865,-477.66657)">
      <path
         inkscape:connector-curvature="0"
         id="path7105-4"
         d="m 105.69841,75.982846 a 1.2084103,1.2084103 0 0 0 -1.20841,1.208411 1.2084103,1.2084103 0 0 0 0.28142,0.773424 c -0.0984,-0.03066 -0.33435,-0.103863 -0.55165,-0.168873 v 0.0078 l -0.0484,0.05793 c -0.12806,0.09167 -0.0719,0.207819 -0.0766,0.418812 -0.005,0.210998 -0.22063,0.04438 -0.28167,0.238969 -0.0519,0.165474 0.17138,0.396277 -0.0384,0.551909 0.44509,0.145053 0.86947,0.226317 0.81854,0.676014 0.006,0.190948 -0.11075,0.44217 -0.17673,0.625239 -0.066,0.183064 -0.10025,0.232993 -0.13382,0.302112 -0.0787,0.161207 -0.16764,0.267352 -0.31922,0.329821 0.40415,0.149671 0.10189,0.425379 0.16142,0.615173 0.061,0.194589 0.27697,0.02797 0.28167,0.238966 0.005,0.21099 -0.0515,0.327118 0.0766,0.418789 l 0.0439,0.05258 c 0.32325,-0.231921 0.74398,-0.609538 0.95618,-0.696456 0,0 0.14586,-0.0648 0.22071,-0.06426 0.0748,5.54e-4 0.20959,0.06426 0.20959,0.06426 0.21219,0.08691 0.63295,0.464535 0.95619,0.696456 l 0.0439,-0.05258 c 0.12807,-0.09167 0.0719,-0.207799 0.0766,-0.418789 0.005,-0.210995 0.22063,-0.04438 0.28167,-0.238966 0.0595,-0.189794 -0.24273,-0.465502 0.16142,-0.615173 -0.15159,-0.06246 -0.24053,-0.16861 -0.31926,-0.329821 -0.0336,-0.06911 -0.0678,-0.119048 -0.13378,-0.302112 -0.066,-0.183069 -0.18259,-0.434284 -0.17673,-0.625239 -0.0509,-0.449684 0.37341,-0.530996 0.81849,-0.676038 -0.2097,-0.155633 0.0136,-0.386425 -0.0383,-0.551885 -0.061,-0.194591 -0.27697,-0.02797 -0.28167,-0.238969 -0.005,-0.210993 0.0514,-0.327141 -0.0766,-0.418812 l -0.0484,-0.05793 v -0.0078 c -0.21613,0.06465 -0.45071,0.137437 -0.55025,0.168442 a 1.2084103,1.2084103 0 0 0 0.28,-0.772993 1.2084103,1.2084103 0 0 0 -1.20843,-1.208411 z m -0.4443,0.672111 a 0.18849857,0.18849857 0 0 1 0.18848,0.188484 0.18849857,0.18849857 0 0 1 -0.18848,0.188504 0.18849857,0.18849857 0 0 1 -0.18851,-0.188504 0.18849857,0.18849857 0 0 1 0.18851,-0.188484 z m 0.88863,0 a 0.18849857,0.18849857 0 0 1 0.18851,0.188484 0.18849857,0.18849857 0 0 1 -0.18851,0.188504 0.18849857,0.18849857 0 0 1 -0.18849,-0.188504 0.18849857,0.18849857 0 0 1 0.18849,-0.188484 z m -0.98057,0.708688 a 0.787176,0.64417155 0 0 0 0.5367,0.174034 0.787176,0.64417155 0 0 0 0.53581,-0.173035 0.5566426,0.45551868 0 0 1 -0.53581,0.333913 0.5566426,0.45551868 0 0 1 -0.5367,-0.334912 z m -1.38106,0.321867 c -0.22549,0.0024 -0.47069,0.199293 -0.55951,0.403267 -0.11328,0.260146 -0.0979,0.670835 0.17737,0.832532 0.0304,0.01569 0.0614,0.03027 0.0928,0.04415 0.30635,-0.154114 0.0418,-0.408966 0.0978,-0.587685 0.061,-0.194585 0.27695,-0.02799 0.28165,-0.238986 0.005,-0.210992 -0.0497,-0.246209 0.0606,-0.363764 l 0.0658,-0.04434 c -0.0455,-0.013 -0.0879,-0.02488 -0.12156,-0.03375 -0.0309,-0.0081 -0.0627,-0.01177 -0.0949,-0.01143 z m 3.83463,0 c -0.0322,-4.51e-4 -0.064,0.0033 -0.0949,0.01143 -0.0337,0.0089 -0.076,0.02075 -0.12158,0.03375 l 0.0658,0.04434 c 0.11022,0.117555 0.0559,0.152772 0.0606,0.363764 0.005,0.210994 0.22063,0.0444 0.28167,0.238986 0.0561,0.178719 -0.20855,0.433571 0.0978,0.587685 0.0313,-0.01389 0.0624,-0.02847 0.0928,-0.04415 0.27522,-0.161701 0.29067,-0.572386 0.17739,-0.832532 -0.0888,-0.203974 -0.33402,-0.400858 -0.55951,-0.403267 z m -1.26973,0.563907 c 0.0216,-5.95e-4 0.0396,0.003 0.053,0.01193 0.0857,0.05707 0.14999,0.584573 -0.064,0.663113 -0.21395,0.07853 -0.33571,-0.12193 -0.50995,-0.158188 -0.0405,-0.0084 -0.082,-0.01349 -0.12332,-0.01356 -0.0436,0 -0.0874,0.005 -0.13005,0.0138 -0.17431,0.03593 -0.296,0.236742 -0.50995,0.158206 -0.21394,-0.07853 -0.14961,-0.606063 -0.064,-0.663135 0.0857,-0.05707 0.36024,0.10297 0.57055,0.196939 0.0353,0.01579 0.086,0.02277 0.13003,0.02273 0.044,0 0.0947,-0.0072 0.13006,-0.02297 0.17745,-0.07928 0.40067,-0.205606 0.51754,-0.208859 z m -0.64758,0.876489 a 0.25581948,0.25581948 0 0 1 0.25582,0.255821 0.25581948,0.25581948 0 0 1 -0.25582,0.255844 0.25581948,0.25581948 0 0 1 -0.25581,-0.255844 0.25581948,0.25581948 0 0 1 0.25581,-0.255821 z m 0,0.787667 a 0.25581948,0.25581948 0 0 1 0.25582,0.25582 0.25581948,0.25581948 0 0 1 -0.25582,0.255821 0.25581948,0.25581948 0 0 1 -0.25581,-0.255821 0.25581948,0.25581948 0 0 1 0.25581,-0.25582 z m -2.0821,1.162252 c -0.0396,0.0083 -0.0788,0.0191 -0.11706,0.03213 -0.8795,0.365104 0.003,1.522815 0.82953,1.313299 l -0.0852,-0.05743 c -0.11022,-0.117558 -0.0559,-0.152768 -0.0606,-0.36376 -0.005,-0.210995 -0.22063,-0.04438 -0.28166,-0.238966 -0.061,-0.194595 0.25864,-0.479555 -0.19313,-0.626335 z m 4.16417,0 -0.0919,0.05894 c -0.45176,0.14678 -0.13208,0.43174 -0.19312,0.626335 -0.061,0.194589 -0.27697,0.02797 -0.28167,0.238966 -0.005,0.210992 0.0497,0.246202 -0.0606,0.36376 l -0.0852,0.05743 c 0.82639,0.209516 1.70903,-0.948195 0.82953,-1.313299 -0.0383,-0.01304 -0.0775,-0.02382 -0.11708,-0.03213 z"
         style="fill:#cad9f1;fill-opacity:1;fill-rule:evenodd;stroke:none;stroke-width:0.00543373px;stroke-linecap:butt;stroke-linejoin:miter;stroke-opacity:1" />
      <path
         inkscape:connector-curvature="0"
         id="path4196-7-3-0-8"
         d="m 105.69841,73.053554 -5.33563,3.080552 v 6.16105 l 5.33563,3.08055 5.33566,-3.08055 v -6.16105 z m 0,1.219195 4.2798,2.470942 v 4.941879 l -4.2798,2.470943 -4.2798,-2.470943 v -4.941879 z"
         style="opacity:1;fill:#d38d5f;fill-opacity:1;stroke:none;stroke-width:0.01511637;stroke-linecap:butt;stroke-linejoin:bevel;stroke-miterlimit:4;stroke-dasharray:0.03023275, 0.01511637;stroke-dashoffset:0;stroke-opacity:1" />
      <g
         transform="matrix(0.02053692,0,0,0.02053692,150.61267,112.49797)"
         id="text6755-6-8"
         style="font-style:normal;font-variant:normal;font-weight:normal;font-stretch:normal;font-size:148.87571716px;line-height:125%;font-family:Roboto;-inkscape-font-specification:Roboto;letter-spacing:0px;word-spacing:0px;fill:#1a1a1a;fill-opacity:1;stroke:none;stroke-width:0.26458329px;stroke-linecap:butt;stroke-linejoin:miter;stroke-opacity:1"
         aria-label="GINGR">
        <path
           id="path7388-3"
           style="font-style:normal;font-variant:normal;font-weight:bold;font-stretch:normal;font-family:'Bebas Neue';-inkscape-font-specification:'Bebas Neue Bold';fill:#1a1a1a;stroke-width:0.26458329px"
           d="m -2291.3201,-1611.7262 h 7.4438 v 19.205 c 0,7.4437 -3.2753,10.1235 -8.4859,10.1235 -5.2107,0 -8.4859,-2.6798 -8.4859,-10.1235 v -56.2751 c 0,-7.4437 3.2752,-10.2724 8.4859,-10.2724 5.2106,0 8.4859,2.8287 8.4859,10.2724 v 11.1657 h 15.4831 v -10.1235 c 0,-16.6741 -8.3371,-26.2022 -24.4156,-26.2022 -16.0786,0 -24.4157,9.5281 -24.4157,26.2022 v 54.1907 c 0,16.6741 8.3371,26.2022 24.4157,26.2022 16.0785,0 24.4156,-9.5281 24.4156,-26.2022 v -33.0504 h -22.9269 z"
           inkscape:connector-curvature="0" />
        <path
           id="path7390-7"
           style="font-style:normal;font-variant:normal;font-weight:bold;font-stretch:normal;font-family:'Bebas Neue';-inkscape-font-specification:'Bebas Neue Bold';fill:#1a1a1a;stroke-width:0.26458329px"
           d="m -2257.73,-1568.5522 h 16.3763 v -104.213 h -16.3763 z"
           inkscape:connector-curvature="0" />
        <path
           id="path7392-3"
           style="font-style:normal;font-variant:normal;font-weight:bold;font-stretch:normal;font-family:'Bebas Neue';-inkscape-font-specification:'Bebas Neue Bold';fill:#1a1a1a;stroke-width:0.26458329px"
           d="m -2194.5392,-1568.5522 h 16.8229 v -104.213 h -14.5898 v 62.3789 l -16.823,-62.3789 h -20.5448 v 104.213 h 14.7387 v -75.48 z"
           inkscape:connector-curvature="0" />
        <path
           id="path7394-5"
           style="font-style:normal;font-variant:normal;font-weight:bold;font-stretch:normal;font-family:'Bebas Neue';-inkscape-font-specification:'Bebas Neue Bold';fill:#1a1a1a;stroke-width:0.26458329px"
           d="m -2141.2813,-1611.7262 h 7.4438 v 19.205 c 0,7.4437 -3.2753,10.1235 -8.4859,10.1235 -5.2107,0 -8.4859,-2.6798 -8.4859,-10.1235 v -56.2751 c 0,-7.4437 3.2752,-10.2724 8.4859,-10.2724 5.2106,0 8.4859,2.8287 8.4859,10.2724 v 11.1657 h 15.4831 v -10.1235 c 0,-16.6741 -8.3371,-26.2022 -24.4156,-26.2022 -16.0786,0 -24.4156,9.5281 -24.4156,26.2022 v 54.1907 c 0,16.6741 8.337,26.2022 24.4156,26.2022 16.0785,0 24.4156,-9.5281 24.4156,-26.2022 v -33.0504 h -22.9269 z"
           inkscape:connector-curvature="0" />
        <path
           id="path7396-0"
           style="font-style:normal;font-variant:normal;font-weight:bold;font-stretch:normal;font-family:'Bebas Neue';-inkscape-font-specification:'Bebas Neue Bold';fill:#c83737;fill-opacity:1;stroke-width:0.26458329px"
           d="m -2056.7757,-1568.5522 c -1.6376,-3.8708 -1.7865,-7.5927 -1.7865,-12.6545 v -16.0786 c 0,-10.8679 -2.6798,-18.7583 -10.8679,-22.1824 7.2949,-3.4242 10.719,-10.4213 10.719,-21.1404 v -8.1882 c 0,-16.0785 -7.2949,-23.9689 -24.2667,-23.9689 h -24.7134 v 104.213 h 16.3763 v -42.4296 h 5.6573 c 7.4438,0 10.7191,3.573 10.7191,13.2499 v 16.3763 c 0,8.486 0.5955,10.1236 1.4887,12.8034 z m -26.6488,-89.3255 c 5.8062,0 8.3371,3.2753 8.3371,10.7191 v 10.2724 c 0,8.337 -3.7219,11.0168 -9.8258,11.0168 h -6.4017 v -32.0083 z"
           inkscape:connector-curvature="0" />
      </g>
    </g>
  </g>
</svg>
